<svg xmlns="http://www.w3.org/2000/svg" version="1.1" xmlns:xlink="http://www.w3.org/1999/xlink" xmlns:svgjs="http://svgjs.dev/svgjs" width="1440" height="560" preserveAspectRatio="none" viewBox="0 0 1440 560"><g mask="url(&quot;#SvgjsMask1025&quot;)" fill="none"><rect width="1440" height="560" x="0" y="0" fill="rgba(243, 197, 23, 1)"></rect><path d="M0,399.046C79.449,398.906,166.506,405.6,229.812,357.595C292.121,310.347,294.611,220.495,328.44,149.994C363.11,77.74,420.062,17.382,431.144,-61.989C444.525,-157.826,449.07,-262.549,397.472,-344.411C343.476,-430.078,250.644,-505.599,149.435,-508.929C49.061,-512.231,-11.156,-394.019,-105.992,-360.976C-193.484,-330.491,-315.342,-395.84,-376.039,-325.84C-436.73,-255.847,-357.35,-144.952,-372.549,-53.565C-388.288,41.073,-496.898,121.942,-465.592,212.629C-434.866,301.636,-317.749,323.406,-230.334,358.406C-156.46,387.984,-79.575,399.186,0,399.046" fill="#c09a0a"></path><path d="M1440 1050.3809999999999C1531.112 1053.1 1567.898 927.424 1642.15 874.5509999999999 1711.373 825.259 1816.03 824.588 1859.574 751.613 1903.684 677.69 1884.22 582.913 1866.4279999999999 498.689 1849.487 418.49199999999996 1807.067 349.75 1760.444 282.334 1708.537 207.27800000000002 1663.917 119.33999999999997 1579.728 84.12900000000002 1492.592 47.686000000000035 1390.36 56.80000000000001 1302.195 90.67899999999997 1217.473 123.23500000000001 1151.528 191.166 1102.465 267.524 1057.701 337.19100000000003 1034.277 419.438 1037.797 502.172 1040.9769999999999 576.905 1083.7730000000001 640.816 1121.106 705.634 1155.126 764.6990000000001 1199.172 812.678 1245.4569999999999 862.7149999999999 1307.905 930.226 1348.076 1047.638 1440 1050.3809999999999" fill="#f6d454"></path></g><defs><mask id="SvgjsMask1025"><rect width="1440" height="560" fill="#ffffff"></rect></mask></defs></svg>