<?xml version="1.0" encoding="UTF-8"?>
<svg width="712px" height="295px" viewBox="0 0 712 295" version="1.1" xmlns="http://www.w3.org/2000/svg" xmlns:xlink="http://www.w3.org/1999/xlink">
    <!-- Generator: Sketch 50.2 (55047) - http://www.bohemiancoding.com/sketch -->
    <title>BigRig-Truck</title>
    <desc>Created with Sketch.</desc>
    <defs></defs>
    <g id="Design" stroke="none" stroke-width="1" fill="none" fill-rule="evenodd">
        <path d="M59.0038603,71.0687029 C55.9554928,69.2155233 46.6409368,63.5604213 43.4480323,61.7078228 C39.608095,59.4798006 39.158948,58.091575 35.5703579,57.9784126 C31.9817679,57.8652502 29.4781338,57.9784126 28.3773485,61.2325848 C27.2765633,64.4867571 28.7180654,78.8890851 28.7180654,78.8890851 L33.300382,79.1905494 L33.300382,118.640695 L16.5795668,118.640695 L16.5795668,79.1905494 L21.3872269,79.1905494 L21.3872269,58.2683717 C21.3872269,58.2683717 22.6858927,50.7165723 30.5036645,49.2534352 C38.3214362,47.7902982 47.8701624,53.3119511 47.8701624,53.3119511 L59.7511131,59.6430881 L63.8603181,61.3198584 L69.1878567,50.6253672 L159.290489,50.6253672 L159.290489,193.367551 C159.290489,193.367551 104.09377,195.088829 96.6945763,198.020406 C89.2953823,200.951983 86.586141,206.269074 83.5260719,212.230837 C80.4660029,218.192599 79.9661814,223.926973 79.9661814,231.069767 C79.9661814,238.212562 73.6149497,243.799457 73.6149497,243.799457 L63.3121341,243.799457 L63.3121341,250.799165 L7.41931702,250.799165 L7.41931702,245.907307 L0,245.907307 L0,148.010511 C0,148.010511 5.70480484,138.450757 9.81990728,135.216674 C13.9350097,131.98259 27.8242466,135.216674 27.8242466,135.216674 L29.8943513,129.503078 L59.0038603,71.0687029 Z M609.237525,215.481489 L560.524216,215.481489 C553.17111,208.318492 543.125508,203.906037 532.049321,203.906037 C520.973134,203.906037 510.927532,208.318492 503.574426,215.481489 L166.532167,215.481489 L166.532167,0 L698.112535,0 L698.112535,215.481489 L666.187316,215.481489 C658.83421,208.318492 648.788607,203.906037 637.71242,203.906037 C626.636234,203.906037 616.590631,208.318492 609.237525,215.481489 Z M124.534053,294.728814 C102.322665,294.728814 84.3167776,276.722926 84.3167776,254.511539 C84.3167776,232.300151 102.322665,214.294263 124.534053,214.294263 C146.745441,214.294263 164.751328,232.300151 164.751328,254.511539 C164.751328,276.722926 146.745441,294.728814 124.534053,294.728814 Z M532.049321,294.728814 C509.837933,294.728814 491.832046,276.722926 491.832046,254.511539 C491.832046,232.300151 509.837933,214.294263 532.049321,214.294263 C554.260709,214.294263 572.266596,232.300151 572.266596,254.511539 C572.266596,276.722926 554.260709,294.728814 532.049321,294.728814 Z M638.009227,294.728814 C615.797839,294.728814 597.791952,276.722926 597.791952,254.511539 C597.791952,232.300151 615.797839,214.294263 638.009227,214.294263 C660.220615,214.294263 678.226502,232.300151 678.226502,254.511539 C678.226502,276.722926 660.220615,294.728814 638.009227,294.728814 Z M168.016199,230.321812 L489.029262,230.321812 L489.029262,239.077603 C489.029262,239.077603 483.572367,237.78943 482.631046,239.077603 C481.689725,240.365776 482.631046,250.74871 482.631046,250.74871 L168.016199,250.74871 L168.016199,230.321812 Z M574.046147,230.28006 L596.913067,230.28006 L596.913067,236.503318 L592.252,236.503318 L592.252,252.746986 L580.598341,252.746986 L580.598341,237.292589 L574.674905,237.292589 L574.046147,230.28006 Z M681.725741,230.124727 L708.338349,230.124727 L708.338349,235.109413 L712,235.109413 L712,246.020944 L706.622058,246.020944 L706.622058,252.429398 L685.550462,252.429398 L685.550462,237.568356 L681.792912,237.092574 L681.725741,230.124727 Z M79.241242,67.6066813 L50.4800743,117.989795 L50.4800743,129.125838 L137.497322,129.125838 L137.497322,67.6066813 L79.241242,67.6066813 Z M105.983649,142.763907 L105.983649,150.184068 L136.257908,150.184068 L136.257908,142.763907 L105.983649,142.763907 Z" id="BigRig-Truck" fill="#000000"></path>
    </g>
</svg>